<svg xmlns="http://www.w3.org/2000/svg" xmlns:xlink="http://www.w3.org/1999/xlink" id="&#x5716;&#x5C64;_1" x="0px" y="0px" viewBox="0 0 2697.3 595.1" style="enable-background:new 0 0 2697.3 595.1;" xml:space="preserve"><style type="text/css">	.st0{fill:#E7F0F9;}	.st1{fill:#A5C1FE;}	.st2{fill:#FAF1BC;}	.st3{fill:#5976C5;}	.st4{fill:#F5B643;}	.st5{fill:#FFFFFF;}</style><g>	<path class="st0" d="M271.4,554.6c0,0.4,0.1,0.7,0.1,1.1c-73.9,0-147.7,0-221.6,0c0-0.3,0-0.7,0-1c73.3,0,146.7,0,220,0.1  C270.5,554.8,270.9,554.7,271.4,554.6z"></path>	<path class="st1" d="M271.4,554.6c-0.5,0.1-1,0.1-1.5,0.1c-73.3,0-146.7,0-220-0.1c0-150.7,0-301.5-0.1-452.2  c0-4.2,1.2-5.2,5.3-5.2c70.4,0.1,140.7,0.1,211.1,0c4.1,0,5.4,1,5.3,5.2c-0.2,28.9-0.2,57.8,0,86.7c0,3.9-1.1,5.1-5,5  c-40.8-0.1-81.5,0-122.2-0.2c-4.4,0-5.5,1.1-5.5,5.5c0.1,85,0.1,170,0,255c0,4.7,1.4,5.8,5.9,5.8c40.4-0.2,80.8,0,121.2-0.2  c4.7,0,5.8,1.4,5.7,5.9C271.4,495.5,271.5,525.1,271.4,554.6z"></path>	<path class="st2" d="M1655,200.1c21.9-0.3,46.5,0.8,71.1,1.3c18.1,0.4,36.2-0.3,54.3,0.9c15.5,1,30.9,0.5,46.3,0.7  c4.8,0.1,7.1,2.6,7.8,6.7c3.2,18.3,4.5,36.7,4.1,55.3c-0.1,3.4-1.7,6.3-3.5,9.1c-16,24-32,48-47.7,72.2  c-23.3,35.8-46.9,71.5-68.9,108.1c-1.8,3-5.4,6.5-3.7,9.7c1.4,2.7,6.1,1,9.4,1c13.5,0.1,27,0.3,40.4-0.1c20.5-0.7,41-1.8,61.2-5.6  c3.9-0.7,7.9-0.8,11.8-1.2c4.1-0.5,6,1.6,6.1,5.3c0.3,11.4-0.7,22.8-1.7,34.2c-1,12.5-2.2,25-4.3,37.4c0,0.2,0,0.3,0,0.5  c-2.7,13.9-1.9,12.3-14.2,12.3c-21.9,0.1-43.8-1.5-65.7-2.3c-33.7-1.2-67.5,0.1-101.2-0.9c-12.4-0.4-24.9-0.6-37.3-0.8  c-5.4-0.1-7.9-3-8.3-8.4c-1.2-16.9-2.4-33.9-6.5-50.5c-1-4-0.7-7.6,1.7-11.3c35.1-56.2,72.1-111.2,106.1-168.1  c3.2-5.4,6.1-11,8.9-16.7c2.9-5.8,1.5-7.9-4.9-8.1c-17.4-0.3-34.9,0.8-52.3,0.9c-16.1,0.2-32.2,1.7-48.3,1.1c-6.9-0.2-8-1-7.8-7.8  c0.5-13.1,3.7-25.8,6.3-38.5c2.1-10,3.7-20.1,4.5-30.3c0.4-4.7,2.5-6.1,6.6-6.1C1634.4,200.1,1643.4,200.1,1655,200.1z"></path>	<path class="st2" d="M2384.7,447.2c0,32,0,59.7,0,87.4c0,7.4-2.4,9.6-9.6,10.3c-16.6,1.5-33.2,0.8-49.8,0.8c-6.1,0-12.2-0.4-18.4-1  c-7.4-0.7-10.1-3.9-10.1-11.4c-0.2-31.2,2.3-62.4,0.8-93.5c-0.7-13.2,0.2-26.4-1.5-39.6c-2.3-17.8-19.9-26-35.3-21.2  c-9.4,2.9-17.5,7.9-24.1,15.2c-2.8,3.1-3.8,6.7-3.8,10.9c0.1,42.3,0.1,84.7,0.1,127c0,9.9-2.8,12-12.7,12.9  c-15.8,1.3-31.5,0.7-47.3,0.7c-6.4,0-12.9-0.9-19.2-1.8c-7.1-1-8.5-3-8.5-10.3c0-37.9,0-75.7,0-113.5c0-8.3,0.2-16.6-0.1-24.9  c-0.7-22.5-2.9-44.8-8.2-66.7c-2.1-8.9-0.9-10.6,8.2-11.9c20-2.7,40-5,59.7-9.6c5.1-1.2,10.4-1.6,15.7-2.3c4.2-0.6,6.1,1.4,6.6,5.4  c0.9,7.2,1.9,14.4,3,21.6c0.8,5.3,1.2,5.4,5.6,2.6c16.3-10.6,32.5-21.5,51.4-27c29.2-8.4,56.6-4.1,80.2,15.7  c10.4,8.7,15.6,20.8,16.5,34.5C2385.9,388.7,2383.8,420.1,2384.7,447.2z"></path>	<path class="st0" d="M741.6,458.1c2.2,2.8-0.1,5.6-0.1,8.4c0.2,26.7,0,53.5,0.3,80.2c0,4.7-1.1,6.2-6,6.2  c-137.9-0.1-275.8-0.1-413.6,0c-4.7,0-5.8-1.3-5.8-5.8c0.2-27.6,0.2-55.1,0-82.7c0-5,1.2-6.4,6.3-6.4c97.3,0.2,194.6,0.1,291.9,0.1  c2.5,0,5,0,7.5,0C661.9,458.1,701.7,458.1,741.6,458.1z"></path>	<path class="st0" d="M621.8,196.1c-99.8,0-199.6,0-299.4,0c-1.5,0-3.8,1-4.4-1c-0.5-1.4,1.5-2.4,2.5-3.4  c30.1-30.1,60.2-60.1,90.3-90.2c2.2-2.2,4.4-3,7.5-3c105.9,0.1,211.9,0.1,317.8-0.1c4.8,0,5.7,1.5,5.7,5.9c-0.2,30.5,0,61.1,0,91.6  c-10.8,0-21.6,0-32.4,0C680.2,195.9,651,196,621.8,196.1z"></path>	<path class="st3" d="M621.8,196.1c29.2-0.1,58.4-0.1,87.6-0.2c10.8,0,21.6,0,32.4,0c0,81.1,0.1,162.2,0.1,243.3  c0,6.3-0.1,12.6-0.2,18.9c-39.8,0-79.7,0-119.5,0c-0.1-1.7-0.3-3.3-0.3-4.9C621.7,367.4,621.7,281.7,621.8,196.1z"></path>	<path class="st1" d="M279.5,328.1c0,35.8-0.1,71.7,0.1,107.6c0,4.4-1.2,5.6-5.6,5.5c-11.3-0.3-22.6-0.3-33.9,0  c-4.3,0.1-5.7-1-5.6-5.5c0.2-24.4,0-48.8,0.2-73.2c0-4.4-1-6.5-5.8-6c-3.1,0.3-6.3,0.3-9.5,0c-4.3-0.4-5.8,1.1-5.7,5.6  c0.2,24.4,0,48.8,0.2,73.2c0,4.4-1,6.1-5.7,5.9c-11.1-0.4-22.3-0.2-33.4-0.1c-3.5,0.1-5-0.6-5-4.6c0.1-72.2,0.1-144.4,0-216.6  c0-3.6,0.8-5,4.7-4.9c11.5,0.2,23,0.3,34.4,0c4.1-0.1,5,1.3,5,5.1c-0.1,25.1,0,50.1-0.2,75.2c0,4.5,1.2,5.9,5.6,5.5  c3.5-0.3,7-0.3,10.5,0c4.1,0.4,5-1.3,5-5.1c-0.1-25.1,0-50.1-0.2-75.2c0-4.5,1.2-5.6,5.6-5.5c11.3,0.3,22.6,0.3,33.9,0  c4.3-0.1,5.6,1,5.6,5.5C279.4,256.4,279.5,292.2,279.5,328.1z"></path>	<path class="st4" d="M1591.8,150.4c-7.3,7.1-13.7,13.3-20.1,19.6c-10.9,10.7-21.6,21.6-32.6,32.2c-2.7,2.6-2.3,5.2-1.8,8.2  c3.8,20.7,7.6,41.4,11.4,62.1c0.5,2.6,0.9,5.2,1.4,8.6c-10.7-5.4-20.6-10.6-30.6-15.7c-11.2-5.8-22.5-11.4-33.6-17.4  c-3.5-1.9-6.2-1.6-9.6,0.3c-18.8,10.3-37.7,20.4-56.5,30.6c-1.9,1-3.8,1.9-6.7,3.5c1.4-8.9,2.6-16.9,3.9-24.8  c2.5-15.9,5-31.7,7.7-47.6c0.5-3-0.4-4.9-2.5-6.9c-16.4-15.5-32.7-31.2-49-46.8c-1.1-1-2.4-1.7-3-3.8c12.9-2,25.8-4.1,38.7-6.1  c11.3-1.8,22.6-3.5,34-5.1c2.8-0.4,3.8-2.1,4.9-4.3c9.9-20.6,19.8-41.2,29.8-61.9c0.6-1.1,1.3-2.2,2.2-3.9  c7.1,13.8,13.8,27.1,20.6,40.4c4.2,8.3,8.4,16.6,12.5,24.9c1.2,2.4,2.6,3.6,5.5,4C1542.3,143.6,1566.2,147,1591.8,150.4z"></path>	<path class="st1" d="M300.6,328.2c0-35.5,0-71,0-106.6c0-6.5,0-6.5,6.7-6.5c32.6,0,65.2,0.1,97.8-0.1c4.1,0,5.4,1.1,5.3,5.3  c-0.2,14.6-0.2,29.2,0,43.8c0.1,3.8-1.2,4.7-4.8,4.7c-19.3-0.2-38.6,0.1-57.9-0.2c-4.5-0.1-5.8,1.4-5.5,5.7c0.3,4.6,0.3,9.3,0,13.9  c-0.2,3.5,1.1,4.5,4.6,4.5c19.3-0.1,38.6,0.1,57.9-0.2c4.7-0.1,5.8,1.3,5.8,5.8c-0.3,12.9-0.3,25.9,0,38.8c0.1,4.6-1.5,5.4-5.7,5.4  c-19-0.2-37.9,0-56.9-0.2c-4.2-0.1-5.8,0.8-5.7,5.4c0.3,13.1,0.3,26.2,0,39.3c-0.1,4.3,1.4,5.2,5.4,5.2c19.1-0.2,38.2,0,57.4-0.2  c4,0,5.5,0.8,5.4,5.1c-0.3,12.9-0.3,25.9,0,38.8c0.1,4.1-1.3,4.9-5.1,4.9c-32.9-0.1-65.8-0.2-98.8,0c-4.6,0-6-1.2-6-5.9  C300.7,399.6,300.6,363.9,300.6,328.2z"></path>	<path class="st0" d="M161.2,88.5c-18.5,0-36.9,0-55.4,0c-6.8,0-7.9-1.2-8-8.2c-0.1-4.7,0.4-9.2,1.1-13.8  c0.9-6.1,6.2-10.8,12.5-10.8c33.3-0.1,66.5-0.1,99.8,0c5.8,0,11.1,4.2,12.3,9.8c1.2,5.8,1.6,11.8,1.2,17.8c-0.3,4.3-3.2,5.2-7,5.2  C198.8,88.4,180,88.5,161.2,88.5z"></path>	<path class="st1" d="M534.1,407.8c0,9.4-0.2,18.9,0.1,28.4c0.1,4.1-1.3,5.1-5.1,5c-9.8-0.2-19.6-0.2-29.4,0  c-3.3,0.1-4.7-0.7-4.7-4.4c0.2-19.4,0.1-38.8,0-58.2c0-2.8,0.6-4.2,3.8-4.2c10.5,0.2,20.9,0.2,31.4,0c3.2-0.1,4,1.2,3.9,4.1  C534,388.2,534.1,398,534.1,407.8z"></path>	<path class="st2" d="M2110.1,394.6c-7.3-36.5-27.2-64.2-60.5-81.1c-30.6-15.5-63.3-16.6-96.3-8.9c-33,7.7-56.9,27.5-72.4,57.4  c-15.4,29.6-17.6,61.3-11.8,93.3c5.9,31.9,23.4,57,50.8,74.7c21.4,13.9,45.2,19,72.1,18.8c7.1,0.4,15.6-0.5,24.1-2  c28.4-5.1,52-18.3,70.2-40.7c18.2-22.3,25.4-48.7,26.7-76.9C2113.6,417.5,2112.3,406,2110.1,394.6z M2010.2,467.4  c-22,13.1-48.1,3.8-58.7-20.3c-7.9-18.1-7.1-36,4.4-52.8c8.4-12.2,20-19,34.8-18.6c18.2,0.4,30.1,10.8,37.4,26.7  c3.4,7.3,4.7,15.1,4.3,23.3C2032.2,443.3,2025.6,458.2,2010.2,467.4z"></path>	<path class="st2" d="M2645.8,385.4c-4.4-19.5-13.5-36.6-26.8-51.4c-10.7-12-23.2-21.7-38.1-28.3c-22-9.7-44.8-10.7-68.2-7.1  c-32.6,5-58,21.4-76.2,48.4c-23.4,34.8-26.9,73.5-18.2,113.4c7.9,36.4,30.2,62,63.5,78.1c19.9,9.6,41.2,13.2,64.8,12.3  c12.5,1,26.3-0.9,39.9-4c18.8-4.3,35.6-12.3,49.5-26.2c3.9-3.9,5.3-8.1,3.2-13.4c-3.6-9.3-8.3-18.1-13.1-26.8  c-3.5-6.4-7.1-12.7-12.1-18.1c-1.6-1.7-2.8-2-5-0.6c-9.1,5.4-17.6,11.9-27.7,15.6c-22.6,8.2-45,9.3-66.9-2.2  c-7.3-3.8-12.7-9.4-16.3-16.9c-1.7-3.6-0.9-5.5,3.1-5.7c3.6-0.2,7.3-0.2,10.9-0.5c13.7-1.2,27.3-2.6,41-3.8  c8.7-0.8,17.5-1.3,26.2-2.2c14.8-1.5,29.6-3.3,44.4-4.7c15.8-1.5,22.3-5.1,24.3-21.3C2649.3,408.5,2648.4,396.8,2645.8,385.4z   M2557.8,400.2c-8.9,1.5-17.9,2.9-26.9,4c-8.7,1-17.4,1.6-26.2,2.3c0-0.1,0-0.2,0-0.2c-2.2,0-4.3,0.1-6.5,0c-3.3-0.2-5.4-2-5.6-5.2  c-1.2-16.1,8.9-36,25.6-40.7c12.9-3.7,28.2,1.7,37,13.5c4.6,6.1,7.1,13,8.1,20.5C2563.6,398.4,2560.8,399.7,2557.8,400.2z"></path>	<path class="st0" d="M514.5,207.4c-45.9,0.3-78.8,35.4-80.2,77.2c-1.6,47.9,35.3,83.7,80.4,83.5c45.5-0.2,80-35.5,80.2-80.2  C594.9,242.4,559,207.1,514.5,207.4z M514.2,317.6c-17.1,0.8-29.9-14.6-30-28.9c-0.1-18.1,13.3-31,30.4-31  c17.4,0.1,30.3,13.5,30.1,30.2C544.7,304.4,531.4,318.6,514.2,317.6z"></path></g><path class="st5" d="M816,208.7c-1,7.4-2.8,31.3,2.4,96.4c0,0,2.9,146.9-1.9,146.9c0,0-3.3,90.7-1.9,91.6c1.4,0.9,3.3,5.2,8.1,5.2 s83.5-0.9,83.5-0.9s9.5-0.5,10-4.8s-2.4-123.1-2.4-123.1s2.4-6.7,8.1-6.7s110.7,0,110.7,0s8.1,0,9.1,7.6 c0.9,7.6-2.9,119.8-2.9,119.8s-1.4,4.8,7.2,7.6c0,0,78.2,1.9,84.4-1.4c0,0,11.9,6.2,12.4-9.5c0,0-9.5-159.8-6.2-168.9 c0,0,5.2-155.1,5.7-155.1c0,0-0.9-9.4-9.4-7.5l-86-0.4c0,0-5.5-1.4-5.8,8.6c-0.4,11.7,3.5,108.7,3.5,108.7l-5.1,6.6l-122.3,0.4 c0,0-5.6-2.9-5.2-7l5.4-113.7c0,0-0.5-3.6-4.9-4.4l-93.1,1C817.6,205.8,816.2,207.1,816,208.7z"></path><path class="st5" d="M1406.7,395.6c0,0-8.8-54.6-53.9-80.2c0,0-55.3-35.9-119.8,0.9c0,0-45.1,21-56.5,81.6c0,0-13.4,61.5,19.3,105.7 c0,0,26.5,42.9,85.6,50.3c0,0,87.8,11.7,119.8-37.2c0,0-18.1-48.9-29.6-52.5c0,0-37.2,31.7-84.2,19.8c0,0-28.6-9.1-30.8-27.9 l127.8-12.5c0,0,19.4,3,23.4-17.3C1407.8,426.3,1409.5,403.5,1406.7,395.6z M1317.6,403.6l-55.8,6.3c-9.5,1.1-9.7-4.9-9.7-4.9 c-0.8-10.5,4.7-21.8,4.7-21.8c11.1-22.1,32-20.8,32-20.8c29.2,3.2,33.9,31.4,33.9,31.4C1324.7,403.2,1317.6,403.6,1317.6,403.6z"></path><path class="st5" d="M1435.3,329.4c0,0-0.1-0.2-0.1-0.5c-0.8-2.7-3.9-15.7,9.2-12.9c0,0,40.6,4.8,71.8,0.5c0,0,18.1-5,14.8,9.3 c0,0-9.3,115.2-5,134.1l0.7,78.5c0,0,2.7,11-11.3,10.1l-67.4,0.2c0,0-9.2-2-9.3-5.7c-0.1-3.7,0.1-171.6,0.1-171.6L1435.3,329.4z"></path></svg>