<?xml version="1.0" encoding="utf-8"?>
<!-- Generator: Adobe Illustrator 25.2.3, SVG Export Plug-In . SVG Version: 6.00 Build 0)  -->
<svg version="1.1" id="圖層_1" xmlns="http://www.w3.org/2000/svg" xmlns:xlink="http://www.w3.org/1999/xlink" x="0px" y="0px"
	 viewBox="0 0 100 100" style="enable-background:new 0 0 100 100;" xml:space="preserve">
<style type="text/css">
	.st0{fill:#DEC5FF;}
</style>
<g id="XMLID_1_">
	<g>
		<path class="st0" d="M78,36v28c0,0.4,0,0.7-0.1,1L62.8,50l15.1-15C78,35.3,78,35.6,78,36z"/>
		<path class="st0" d="M60,52.8l15,15C74.7,68,74.4,68,74,68H26c-0.4,0-0.7,0-1-0.1l15-15l1.8,1.8C44,56.9,47,58,50,58
			c3,0,5.9-1.1,8.2-3.4L60,52.8z"/>
		<path class="st0" d="M37.2,50l-15,15C22,64.7,22,64.4,22,64V36c0-0.4,0-0.7,0.1-1L37.2,50z"/>
		<path class="st0" d="M75,32.1L55.4,51.8c-3,3-7.8,3-10.7,0L25,32.1c0.3-0.1,0.7-0.1,1-0.1h48C74.4,32,74.7,32,75,32.1z"/>
	</g>
	<g>
	</g>
</g>
</svg>
