<?xml version="1.0" encoding="utf-8"?>
<!-- Generator: Adobe Illustrator 25.2.3, SVG Export Plug-In . SVG Version: 6.00 Build 0)  -->
<svg version="1.1" id="圖層_1" xmlns="http://www.w3.org/2000/svg" xmlns:xlink="http://www.w3.org/1999/xlink" x="0px" y="0px"
	 viewBox="0 0 100 100" style="enable-background:new 0 0 100 100;" xml:space="preserve">
<style type="text/css">
	.st0{fill:#DEC5FF;}
</style>
<g id="XMLID_1_">
	<g>
		<path class="st0" d="M23.9,35.2c0-1.6,2.9-7.1,10-6.8c1.3,0.1,2.4,0.8,3.1,1.9c0.8,1.2,2,3.1,3.6,5.6c1.5,2.3,1.6,5.2,0.3,7.6
			l-2.9,4.2c-0.8,1.1-1,2.6-0.4,3.8c0.8,2,2.4,5,5.3,7.9c2.8,2.9,5.9,4.5,7.9,5.3c1.3,0.5,2.7,0.4,3.8-0.4l4.2-2.9
			c2.4-1.3,5.3-1.2,7.6,0.2c2.5,1.6,4.4,2.8,5.7,3.6c1.1,0.7,1.8,1.8,1.8,3.1c0.3,7.1-5.2,10-6.8,10c-1.1,0-14.5,1.5-29.6-13.6
			C22.3,49.6,23.9,36.3,23.9,35.2z"/>
	</g>
	<g>
	</g>
</g>
</svg>
